<svg width="15" height="19" viewBox="0 0 15 19" fill="none" xmlns="http://www.w3.org/2000/svg">
<path d="M10.0173 17C10.0175 17.5046 9.85757 17.9906 9.56969 18.3605C9.2818 18.7305 8.88721 18.9572 8.46502 18.995L8.33916 19H6.66097C6.23759 19.0002 5.8298 18.8096 5.51935 18.4665C5.2089 18.1234 5.01874 17.6532 4.98699 17.15L4.98279 17H10.0173ZM7.50007 9.54067e-10C9.023 -2.9945e-05 10.4864 0.704894 11.5816 1.96607C12.6768 3.22726 13.3181 4.94609 13.3703 6.76L13.3737 7V10.764L14.9025 14.408C14.9692 14.567 15.0026 14.7429 14.9998 14.9206C14.997 15.0984 14.9581 15.2727 14.8865 15.4286C14.8148 15.5845 14.7125 15.7174 14.5883 15.8158C14.4641 15.9143 14.3217 15.9754 14.1734 15.994L14.0769 16H0.923273C0.774052 16.0001 0.627046 15.957 0.49485 15.8745C0.362655 15.792 0.249213 15.6725 0.164245 15.5264C0.0792775 15.3802 0.0253175 15.2116 0.00698909 15.0351C-0.0113393 14.8586 0.00651065 14.6795 0.0590091 14.513L0.0976073 14.408L1.62643 10.764V7C1.62643 5.14348 2.24526 3.36301 3.34678 2.05025C4.4483 0.737498 5.94228 9.54069e-10 7.50007 9.54067e-10Z" fill="#E6E6E6"/>
</svg>
