<svg width="9" height="9" viewBox="0 0 9 9" fill="none" xmlns="http://www.w3.org/2000/svg">
<path d="M9 4.5C9 4.64322 8.94311 4.78057 8.84184 4.88184C8.74057 4.98311 8.60322 5.04 8.46 5.04H5.04V8.46C5.04 8.60322 4.98311 8.74057 4.88184 8.84184C4.78057 8.94311 4.64322 9 4.5 9C4.35678 9 4.21943 8.94311 4.11816 8.84184C4.01689 8.74057 3.96 8.60322 3.96 8.46V5.04H0.54C0.396783 5.04 0.259432 4.98311 0.158162 4.88184C0.0568927 4.78057 0 4.64322 0 4.5C0 4.35678 0.0568927 4.21943 0.158162 4.11816C0.259432 4.01689 0.396783 3.96 0.54 3.96H3.96V0.54C3.96 0.396783 4.01689 0.259432 4.11816 0.158162C4.21943 0.0568927 4.35678 0 4.5 0C4.64322 0 4.78057 0.0568927 4.88184 0.158162C4.98311 0.259432 5.04 0.396783 5.04 0.54V3.96H8.46C8.60322 3.96 8.74057 4.01689 8.84184 4.11816C8.94311 4.21943 9 4.35678 9 4.5Z" fill="white"/>
</svg>
